<mxfile host="app.diagrams.net" modified="2021-06-09T18:55:27.006Z" agent="5.0 (Windows NT 6.3; Win64; x64) AppleWebKit/537.36 (KHTML, like Gecko) Chrome/91.0.4472.77 Safari/537.36 OPR/77.0.4054.60" etag="ce6zwMfLgnQpm9D3Vxai" version="14.7.6" type="github">
  <diagram id="IMNbEbqrIpcsrLyuV6MN" name="Page-1">
    <mxGraphModel dx="1422" dy="795" grid="1" gridSize="10" guides="1" tooltips="1" connect="1" arrows="1" fold="1" page="1" pageScale="1" pageWidth="1169" pageHeight="827" math="0" shadow="0">
      <root>
        <mxCell id="0" />
        <mxCell id="1" parent="0" />
        <mxCell id="yDvGkLI96mo0AxkriHrv-1" value="" style="image;html=1;image=img/lib/clip_art/people/Construction_Worker_Man_128x128.png" vertex="1" parent="1">
          <mxGeometry x="120" y="430" width="80" height="80" as="geometry" />
        </mxCell>
        <mxCell id="yDvGkLI96mo0AxkriHrv-2" value="" style="image;html=1;image=img/lib/clip_art/people/Military_Officer_128x128.png" vertex="1" parent="1">
          <mxGeometry x="690" y="470" width="80" height="80" as="geometry" />
        </mxCell>
        <mxCell id="yDvGkLI96mo0AxkriHrv-3" value="" style="image;html=1;image=img/lib/clip_art/people/Scientist_Woman_128x128.png" vertex="1" parent="1">
          <mxGeometry x="90" y="220" width="80" height="80" as="geometry" />
        </mxCell>
        <mxCell id="yDvGkLI96mo0AxkriHrv-4" style="edgeStyle=orthogonalEdgeStyle;rounded=0;orthogonalLoop=1;jettySize=auto;html=1;exitX=1;exitY=0.25;exitDx=0;exitDy=0;entryX=0;entryY=0.5;entryDx=0;entryDy=0;startArrow=classic;startFill=1;" edge="1" parent="1" source="yDvGkLI96mo0AxkriHrv-7" target="yDvGkLI96mo0AxkriHrv-11">
          <mxGeometry relative="1" as="geometry" />
        </mxCell>
        <mxCell id="yDvGkLI96mo0AxkriHrv-5" style="edgeStyle=orthogonalEdgeStyle;rounded=0;orthogonalLoop=1;jettySize=auto;html=1;exitX=1;exitY=0.5;exitDx=0;exitDy=0;entryX=0;entryY=0.5;entryDx=0;entryDy=0;startArrow=classic;startFill=1;" edge="1" parent="1" source="yDvGkLI96mo0AxkriHrv-7" target="yDvGkLI96mo0AxkriHrv-12">
          <mxGeometry relative="1" as="geometry" />
        </mxCell>
        <mxCell id="yDvGkLI96mo0AxkriHrv-6" style="edgeStyle=orthogonalEdgeStyle;rounded=0;orthogonalLoop=1;jettySize=auto;html=1;exitX=1;exitY=0.75;exitDx=0;exitDy=0;entryX=0;entryY=0.5;entryDx=0;entryDy=0;startArrow=classic;startFill=1;" edge="1" parent="1" source="yDvGkLI96mo0AxkriHrv-7" target="yDvGkLI96mo0AxkriHrv-13">
          <mxGeometry relative="1" as="geometry" />
        </mxCell>
        <mxCell id="yDvGkLI96mo0AxkriHrv-7" value="" style="image;html=1;image=img/lib/clip_art/computers/Database_128x128.png" vertex="1" parent="1">
          <mxGeometry x="770" y="175" width="80" height="80" as="geometry" />
        </mxCell>
        <mxCell id="yDvGkLI96mo0AxkriHrv-8" value="" style="image;html=1;image=img/lib/clip_art/networking/Cloud_128x128.png" vertex="1" parent="1">
          <mxGeometry x="536.25" y="500" width="80" height="80" as="geometry" />
        </mxCell>
        <mxCell id="yDvGkLI96mo0AxkriHrv-9" value="" style="image;html=1;image=img/lib/clip_art/computers/iPad_128x128.png" vertex="1" parent="1">
          <mxGeometry x="90" y="334" width="80" height="80" as="geometry" />
        </mxCell>
        <mxCell id="yDvGkLI96mo0AxkriHrv-10" value="" style="image;html=1;image=img/lib/clip_art/computers/Workstation_128x128.png" vertex="1" parent="1">
          <mxGeometry x="240" y="170" width="80" height="80" as="geometry" />
        </mxCell>
        <mxCell id="yDvGkLI96mo0AxkriHrv-11" value="" style="image;html=1;image=img/lib/clip_art/computers/Workstation_128x128.png" vertex="1" parent="1">
          <mxGeometry x="1030" y="20" width="80" height="80" as="geometry" />
        </mxCell>
        <mxCell id="yDvGkLI96mo0AxkriHrv-12" value="" style="image;html=1;image=img/lib/clip_art/computers/Workstation_128x128.png" vertex="1" parent="1">
          <mxGeometry x="1030" y="175" width="80" height="80" as="geometry" />
        </mxCell>
        <mxCell id="yDvGkLI96mo0AxkriHrv-13" value="" style="image;html=1;image=img/lib/clip_art/computers/Workstation_128x128.png" vertex="1" parent="1">
          <mxGeometry x="1030" y="320" width="80" height="80" as="geometry" />
        </mxCell>
        <mxCell id="yDvGkLI96mo0AxkriHrv-14" value="" style="image;html=1;image=img/lib/clip_art/telecommunication/iPhone_128x128.png" vertex="1" parent="1">
          <mxGeometry x="840" y="450" width="80" height="80" as="geometry" />
        </mxCell>
        <mxCell id="yDvGkLI96mo0AxkriHrv-15" value="" style="image;html=1;image=img/lib/clip_art/telecommunication/iPhone_128x128.png" vertex="1" parent="1">
          <mxGeometry x="310" y="460" width="80" height="80" as="geometry" />
        </mxCell>
        <mxCell id="yDvGkLI96mo0AxkriHrv-16" value="" style="aspect=fixed;html=1;points=[];align=center;image;fontSize=12;image=img/lib/azure2/general/Dashboard.svg;" vertex="1" parent="1">
          <mxGeometry x="470" y="140" width="212.5" height="150" as="geometry" />
        </mxCell>
        <mxCell id="yDvGkLI96mo0AxkriHrv-17" value="Панель мониторинга и&#xa;планирования испытаний&#xa;климатического участка" style="text;resizable=0;autosize=1;align=center;verticalAlign=middle;points=[];fillColor=none;strokeColor=none;rounded=0;spacing=1;fontSize=36;fontFamily=Helvetica;" vertex="1" parent="1">
          <mxGeometry x="340" y="5" width="450" height="140" as="geometry" />
        </mxCell>
      </root>
    </mxGraphModel>
  </diagram>
</mxfile>
